<svg width="384" height="492" viewBox="0 0 384 492" fill="none" xmlns="http://www.w3.org/2000/svg">
<path d="M384 302.7C328.9 439.4 196.9 356.7 196.9 356.7C156.4 438.5 89.5 491.1 12.3 491.4C-3.79998 491.4 -4.29998 467 12.3 467C76.7 466.7 132.8 424.3 169.5 356.9C128.4 372.8 50.9 384.8 7.90002 274.7C116.9 229.8 167 285.9 186.2 320.2C196.1 295.8 203.2 269.3 207.8 240.5C207.8 240.5 68.1 262.4 58.3 142.4C177.4 94.5 210.9 219.1 210.9 219.1C212.5 202.4 214.2 166.5 214.2 165.7C214.2 165.7 107.9 92 176.1 0.5C300.7 43.5 237.5 162.9 237.5 162.9C238 164.5 238 186.7 237.5 196.3C237.5 196.3 282.7 107.3 373.9 138.8C369.7 272.8 232 245.2 232 245.2C227.6 272.6 220.8 298.6 212 322.7C212 322.7 295 230.9 384 302.7V302.7Z" fill="#CFCFCF"/>
</svg>
