<svg width="200" height="200" viewBox="0 0 200 200" fill="none" xmlns="http://www.w3.org/2000/svg">
<g clip-path="url(#clip0_421_16)">
<path d="M200 100C200 73.4784 189.464 48.043 170.711 29.2893C151.957 10.5357 126.522 0 100 0C73.4784 0 48.043 10.5357 29.2893 29.2893C10.5357 48.043 0 73.4784 0 100C0 126.522 10.5357 151.957 29.2893 170.711C48.043 189.464 73.4784 200 100 200C126.522 200 151.957 189.464 170.711 170.711C189.464 151.957 200 126.522 200 100ZM106.25 143.75C106.25 145.408 105.592 146.997 104.419 148.169C103.247 149.342 101.658 150 100 150C98.3424 150 96.7527 149.342 95.5806 148.169C94.4085 146.997 93.75 145.408 93.75 143.75V71.3375L66.925 98.175C65.7514 99.3486 64.1597 100.008 62.5 100.008C60.8403 100.008 59.2486 99.3486 58.075 98.175C56.9014 97.0014 56.2421 95.4097 56.2421 93.75C56.2421 92.0903 56.9014 90.4986 58.075 89.325L95.575 51.825C96.1556 51.243 96.8453 50.7812 97.6046 50.4661C98.3639 50.151 99.1779 49.9888 100 49.9888C100.822 49.9888 101.636 50.151 102.395 50.4661C103.155 50.7812 103.844 51.243 104.425 51.825L141.925 89.325C143.099 90.4986 143.758 92.0903 143.758 93.75C143.758 95.4097 143.099 97.0014 141.925 98.175C140.751 99.3486 139.16 100.008 137.5 100.008C135.84 100.008 134.249 99.3486 133.075 98.175L106.25 71.3375V143.75Z" fill="#000232"/>
</g>
<defs>
<clipPath id="clip0_421_16">
<rect width="200" height="200" fill="white"/>
</clipPath>
</defs>
</svg>
